<svg  width="150" height="50" viewBox="0 0 5572 1024" xmlns="http://www.w3.org/2000/svg"><path d="M5527.492 589.071c-37.346-20.992-213.655-27.528-406.167-26.955h-281.48c-680.267-3.915-1691.829 13.854-2040.079 27.618-490.315 19.426-2380.619-67.554-2671.014-2.229-11.535 1.837-22.287 7.138-30.81 15.179-43.279 43.791-54.332 37.768-83.576 73.577-31.202 38.008-4.277 87.16 12.318 127.398 16.595 40.267-19.064 68.638 4.789 116.585 14.366 29.003 111.435 39.424 229.737 28.16 378.097-35.539 2491.211 0.602 2823.108-11.264 352.045-12.649 1665.506 4.548 2091.279 15.36 346.654 23.251 351.925-66.982 351.925-122.549s99.569-184.922 0-240.881z" fill="rgb(92, 255, 215)"></path><path d="M594.522 531.486c-17.794-12.58-38.219-23.295-60.010-31.15l-1.792-0.564c-13.695-5.622-38.726-14.261-64.029-22.289l-11.326-3.101c-6.663-2.019-15.113-3.977-23.73-5.445l-1.328-0.187c-10.217-1.949-18.662-4.065-26.929-6.589l1.811 0.476c-7.66-2.253-14.33-5.685-20.179-10.139l0.151 0.11c-5.015-3.715-8.231-9.613-8.231-16.262 0-0.213 0.003-0.424 0.010-0.635l-0.001 0.031c-0.003-0.124-0.004-0.27-0.004-0.417 0-4.702 1.503-9.052 4.054-12.598l-0.044 0.064c2.861-4.006 6.536-7.288 10.812-9.638 4.879-2.65 10.12-4.518 15.541-5.632 5.692-1.295 11.505-1.988 17.318-2.018 6.415 0.090 12.83 0.783 19.125 2.018 7.138 1.385 14.155 3.283 21.082 5.632s13.704 5.301 20.179 8.764c6.204 3.162 25.66 17.468 29.997 20.058 3.533 2.066 7.778 3.286 12.308 3.286 2.794 0 5.48-0.464 7.984-1.319l-0.174 0.052c3.036-1.147 5.622-2.87 7.735-5.054l0.005-0.006 12.77-13.252 21.052-22.046 21.353-21.805 15.059-14.456c3.506-2.651 6.31-6.044 8.211-9.957l0.071-0.163c1.332-2.973 2.307-6.421 2.753-10.033l0.018-0.177c-0.413-5.483-2.626-10.382-6.043-14.177l0.019 0.021c-12.774-12.723-27.099-23.905-42.663-33.232l-1.008-0.56c-13.597-7.986-29.32-14.962-45.85-20.107l-1.615-0.433c-14.394-4.523-31.399-8.094-48.895-10.037l-1.251-0.113c-16.117-1.745-34.813-2.741-53.74-2.741-0.166 0-0.331 0-0.497 0l0.025-0c-0.792-0.007-1.727-0.011-2.663-0.011-29.964 0-58.97 4.105-86.485 11.783l2.259-0.538c-26.846 7.175-50.366 18.145-71.392 32.498l0.797-0.513c-18.802 12.827-34.216 29.202-45.574 48.273l-0.385 0.698c-10.513 17.904-16.722 39.433-16.722 62.413 0 0.442 0.002 0.883 0.007 1.323l-0.001-0.067c-0.090 19.275 3.072 38.46 9.367 56.681 7.081 19.255 17.779 35.687 31.376 49.206l0.006 0.006c16.64 16.43 35.897 30.261 57.081 40.802l1.287 0.58c28.823 14.095 59.031 25.058 90.172 32.708 18.552 4.728 36.834 10.541 54.694 17.468 13.372 5.391 20.058 13.252 20.058 23.582 0.004 0.138 0.006 0.299 0.006 0.462 0 4.81-1.999 9.152-5.211 12.243l-0.005 0.005c-4.006 3.524-8.734 6.114-13.854 7.59-5.763 1.807-12.575 3.238-19.582 4.020l-0.506 0.046c-7.529 0.934-15.059 1.355-22.618 1.295-14.943-0.594-28.85-4.479-41.192-10.946l0.533 0.254c-19.516-9.318-36.33-19.983-51.695-32.371l0.495 0.386c-3.915-3.162-8.041-6.024-12.348-8.614-2.815-1.938-6.271-3.137-10.001-3.252l-0.029-0.001-7.017 2.018c-2.966 1.172-5.488 2.891-7.552 5.052l-0.008 0.008-72.433 76.107c-5.1 4.434-8.422 10.799-8.821 17.944l-0.003 0.067c0.602 8.794 4.457 17.047 10.842 23.1 25.001 27.616 56.008 49.316 91 63.099l1.642 0.57c32.273 12.886 69.677 20.36 108.827 20.36 0.176 0 0.352-0 0.528-0l-0.027 0c31.322 0.211 62.524-3.704 92.853-11.625 29.208-7.545 54.836-19.308 77.734-34.801l-0.874 0.557c21.317-14.405 38.765-32.901 51.553-54.482l0.43-0.784c12.039-20.831 19.142-45.822 19.142-72.472 0-1.31-0.017-2.616-0.051-3.918l0.004 0.192c0.047-1.353 0.074-2.942 0.074-4.538 0-23.253-5.696-45.175-15.769-64.447l0.366 0.768c-10.34-18.012-23.902-33.016-40.036-44.682l-0.412-0.283zM1234.101 436.917c-15.061-35.007-35.551-64.898-60.746-90.081l-0.001-0.001c-25.347-24.873-55.337-45.121-88.535-59.311l-1.878-0.714c-32.929-14.005-71.232-22.145-111.435-22.145s-78.506 8.14-113.349 22.863l1.913-0.718c-68.508 29.050-122.095 82.149-151.081 148.46l-0.712 1.827c-14.309 32.135-22.641 69.63-22.641 109.071 0 52.010 14.489 100.636 39.65 142.061l-0.686-1.216c25.493 41.125 60.19 74.29 101.356 97.253l1.406 0.72c41.357 23.571 90.858 37.501 143.605 37.587l0.026 0c0.184 0 0.401 0.001 0.618 0.001 77.753 0 148.349-30.644 200.369-80.512l-0.102 0.098c25.178-24.484 45.663-53.642 60.079-86.093l0.698-1.761c14.088-31.35 22.295-67.955 22.295-106.476 0-0.738-0.003-1.475-0.009-2.211l0.001 0.113c0.022-1.282 0.034-2.794 0.034-4.309 0-37.714-7.675-73.635-21.548-106.286l0.672 1.781zM1058.575 588.89c-4.312 12.433-10.625 23.153-18.65 32.34l0.097-0.114c-7.891 8.934-17.521 16.134-28.384 21.106l-0.529 0.217c-12.047 5.271-25.058 7.831-38.159 7.59-0.487 0.009-1.061 0.014-1.637 0.014-13.291 0-25.929-2.798-37.357-7.837l0.593 0.233c-11.51-5.121-21.232-12.344-29.074-21.261l-0.080-0.093c-7.932-9.065-14.254-19.774-18.375-31.518l-0.207-0.678c-4.144-11.769-6.538-25.339-6.538-39.469 0-0.291 0.001-0.582 0.003-0.873l-0 0.045c-0.090-13.553 2.108-27.046 6.536-39.846 4.156-11.806 10.451-22.769 18.552-32.256 16.010-18.535 39.545-30.195 65.803-30.195 0.605 0 1.209 0.006 1.811 0.019l-0.090-0.001c0.571-0.014 1.243-0.021 1.917-0.021 26.115 0 49.504 11.671 65.237 30.081l0.099 0.118c8.132 9.547 14.426 20.57 18.552 32.467 4.427 12.8 6.626 26.293 6.505 39.846 0.090 13.734-2.138 27.377-6.626 40.328v-0.241zM1722.007 659.667c-1.431-2.064-4.148-6.368-6.808-10.71l-1.414-2.482c-2.595-4.478-5.183-8.294-8.005-11.919l0.175 0.233c-2.344-3.002-5-5.601-7.963-7.813l-0.109-0.078c-2.712-2.046-6.048-3.404-9.679-3.758l-0.079-0.006h-6.295c-2.935 0.569-5.548 1.519-7.947 2.813l0.147-0.072c-4.855 3.381-10.436 6.696-16.254 9.609l-0.793 0.36c-5.537 2.766-12.179 5.443-19.047 7.615l-1.012 0.276c-7.078 2.108-14.306 3.825-21.594 5.060-6.626 1.235-13.372 1.928-20.119 2.018-0.425 0.007-0.926 0.012-1.429 0.012-13.132 0-25.586-2.901-36.756-8.097l0.538 0.225c-11.373-5.327-20.992-12.594-28.832-21.47l-0.081-0.094c-7.947-9.185-14.337-19.979-18.6-31.789l-0.223-0.708c-4.294-11.739-6.778-25.293-6.778-39.428 0-0.221 0.001-0.442 0.002-0.663l-0 0.034c-0.090-13.463 2.229-26.805 6.776-39.424 4.337-11.927 10.722-23.010 18.854-32.708 7.288-9.698 16.565-17.739 27.106-23.582 10.591-5.14 23.037-8.145 36.185-8.145 0.525 0 1.048 0.005 1.571 0.014l-0.079-0.001c6.837 0.12 13.643 0.813 20.36 2.048 14.456 2.319 28.582 6.596 41.954 12.649 5.662 2.56 11.023 5.722 16.023 9.427 5.15 3.524 11.144 5.632 17.348 6.084 9.976-0.999 18.226-7.468 21.773-16.328l0.062-0.176 54.001-97.672c2.289-4.518 3.524-9.517 3.554-14.577 0.030-0.466 0.046-1.011 0.046-1.559 0-6.432-2.317-12.322-6.162-16.882l0.032 0.039c-5.439-5.401-11.534-10.154-18.151-14.126l-0.432-0.24c-21.986-13.553-45.176-24.968-69.271-34.123-24.109-9.164-51.986-14.47-81.102-14.47-0.87 0-1.739 0.005-2.606 0.014l0.132-0.001c-0.627-0.005-1.369-0.008-2.112-0.008-38.030 0-74.192 7.993-106.899 22.392l1.702-0.668c-34.584 15.086-64.138 35.348-89.169 60.165l0.020-0.020c-24.606 25.255-44.619 55.128-58.597 88.175l-0.705 1.877c-14.089 31.719-22.292 68.722-22.292 107.642 0 0.592 0.002 1.184 0.006 1.776l-0-0.091c-0.005 0.632-0.009 1.38-0.009 2.128 0 38.522 8.207 75.126 22.968 108.161l-0.673-1.684c15.213 33.612 35.546 62.265 60.347 86.341l0.069 0.066c25.034 24.357 54.595 44.214 87.278 58.17l1.87 0.71c31.173 13.523 67.479 21.389 105.622 21.389 0.615 0 1.229-0.002 1.842-0.006l-0.095 0c0.479 0.003 1.045 0.005 1.612 0.005 30.095 0 58.978-5.187 85.805-14.715l-1.792 0.555c26.263-9.427 51.501-21.474 75.324-36.051 4.819-3.012 9.336-6.626 13.342-10.692 4.093-4.187 6.655-9.885 6.776-16.18l0-0.023c-0.51-5.429-2.526-10.307-5.619-14.309l0.047 0.064-45.688-70.596zM2005.564 276.058h-136.614c-0.517-0.038-1.121-0.060-1.729-0.060-7.396 0-14.035 3.239-18.577 8.377l-0.023 0.026c-4.245 5.24-6.814 11.988-6.814 19.336 0 0.243 0.003 0.486 0.008 0.728l-0.001-0.036v482.123c-0.094 0.819-0.147 1.767-0.147 2.729 0 6.924 2.768 13.202 7.259 17.786l-0.004-0.004c5.301 5.421 12.74 8.132 20.239 7.349h136.132c19.938 0 29.907-9.276 29.907-27.859v-482.123c-0.157-7.529-2.616-14.455-6.699-20.135l0.073 0.107c-5.155-5.235-12.319-8.478-20.241-8.478-0.975 0-1.939 0.049-2.889 0.145l0.12-0.010zM3238.099 276.058h-136.614c-0.51-0.037-1.104-0.058-1.704-0.058-7.404 0-14.051 3.238-18.603 8.375l-0.023 0.026c-4.518 5.662-6.927 12.77-6.746 20.028v482.123c-0.094 0.819-0.147 1.767-0.147 2.729 0 6.924 2.768 13.202 7.259 17.786l-0.004-0.004c5.301 5.421 12.74 8.132 20.239 7.349h136.132c19.908 0 29.877-9.276 29.877-27.859v-482.123c-0.099-7.535-2.569-14.474-6.695-20.128l0.069 0.099c-5.141-5.238-12.296-8.484-20.209-8.484-0.997 0-1.982 0.052-2.952 0.152l0.121-0.010zM2653.184 284.913c-5.712-4.773-13.133-7.671-21.232-7.671-0.647 0-1.289 0.018-1.926 0.055l0.088-0.004h-86.136c-2.037-0.162-4.411-0.254-6.807-0.254s-4.769 0.092-7.118 0.273l0.312-0.019c-3.231 0.473-6.057 1.937-8.224 4.068l0.002-0.002c-2.415 2.696-4.316 5.908-5.515 9.445l-0.057 0.193c-1.436 3.351-3.582 9.242-5.579 15.203l-0.746 2.567-16.324 50.688c-5.471-12.686-11.844-23.612-19.342-33.65l0.307 0.43c-8.33-11.207-17.947-20.824-28.786-28.892l-0.368-0.262c-11.38-8.525-24.515-15.586-38.644-20.53l-1.021-0.311c-14.449-5.008-31.102-7.9-48.431-7.9-0.603 0-1.205 0.004-1.806 0.010l0.091-0.001c-0.953-0.012-2.079-0.019-3.207-0.019-37.976 0-74.162 7.667-107.092 21.539l1.815-0.679c-32.874 13.89-60.848 33.366-84.007 57.499l-0.082 0.086c-23.222 24.451-41.8 53.57-54.154 85.772l-0.6 1.78c-12.46 32.355-19.677 69.789-19.677 108.909 0 0.888 0.004 1.776 0.011 2.662l-0.001-0.136c-0.010 0.928-0.016 2.024-0.016 3.121 0 38.266 7.099 74.874 20.052 108.58l-0.7-2.072c25.004 66.032 74.755 117.841 137.645 144.985l1.649 0.633c30.865 13.342 66.804 21.101 104.556 21.101 1.127 0 2.252-0.007 3.376-0.021l-0.171 0.002h6.024c0.935 0.024 2.036 0.038 3.14 0.038 15.157 0 29.702-2.618 43.208-7.426l-0.9 0.28c11.656-4.216 22.528-10.421 32.136-18.312 8.433-6.987 15.962-15.089 22.287-24.094l16.745-25.389 12.047 35.027 5 13.252c1.205 3.674 3.102 7.108 5.572 10.12 2.398 2.746 5.327 4.961 8.635 6.499l0.16 0.067c4.638 1.928 9.608 2.771 14.607 2.53h106.195c8.162 0.12 16.143-2.56 22.588-7.59 6.215-5.081 10.151-12.749 10.151-21.336 0-0.791-0.033-1.574-0.099-2.347l0.007 0.101v-476.040c0.015-0.344 0.023-0.747 0.023-1.152 0-8.519-3.723-16.169-9.631-21.41l-0.030-0.026zM2465.461 589.101c-4.884 12.496-11.771 23.203-20.37 32.269l0.041-0.044c-8.885 9.246-19.576 16.504-31.383 21.323-12.499 5.18-25.901 7.77-39.454 7.62-13.011 0.181-25.901-2.409-37.888-7.62-11.144-4.879-21.082-12.168-29.124-21.323-7.927-9.073-14.241-19.793-18.346-31.548l-0.206-0.678c-4.163-11.725-6.569-25.249-6.569-39.335 0-0.338 0.001-0.677 0.004-1.014l-0 0.052c-0.090-13.553 2.108-27.046 6.566-39.846 4.126-11.896 10.421-22.889 18.552-32.467 16.081-18.707 39.773-30.481 66.215-30.481 0.227 0 0.454 0.001 0.681 0.003l-0.035-0c26.744-0.181 52.405 10.842 70.807 30.479 8.855 9.336 15.842 20.39 20.51 32.467 4.969 12.68 7.439 26.202 7.288 39.846 0.004 0.365 0.007 0.796 0.007 1.228 0 14.064-2.678 27.503-7.551 39.834l0.256-0.734zM2953.728 10.421c-6.084-7.258-13.824-8.222-23.070-8.132h-130.921c-0.63-0.057-1.362-0.089-2.102-0.089-7.31 0-13.882 3.165-18.418 8.199l-0.020 0.022c-4.518 5.722-6.837 12.951-6.536 20.269v755.863c0 14.517 8.252 27.859 22.287 27.859h135.831c7.77 0.392 15.42-2.168 21.384-7.138 4.951-4.976 8.012-11.838 8.012-19.414 0-0.46-0.011-0.916-0.034-1.371l0.002 0.064v-756.887c-0.121-7.259-2.52-13.935-6.511-19.369l0.066 0.094zM3601.167 265.156v-164.111c0.023-0.423 0.036-0.919 0.036-1.417 0-6.904-2.471-13.231-6.577-18.144l0.036 0.045c-4.077-4.547-9.969-7.394-16.527-7.394-0.289 0-0.576 0.006-0.862 0.016l0.041-0.001-135.108 21.263c-8.252 1.175-15.902 5.12-21.624 11.264-4.49 5.071-7.231 11.779-7.231 19.128 0 0.147 0.001 0.294 0.003 0.441l-0-0.022v138.933h-30.66c-14.758 0-22.287 5.632-27.076 11.264-3.208 4.318-5.136 9.754-5.136 15.641 0 0.707 0.028 1.407 0.082 2.1l-0.006-0.092v88.004c-0.331 17.559 8.433 31.624 24.335 33.129h38.46v371.11c0 20.962 9.035 28.16 22.287 28.16h143.812c15.149 0 22.287-9.336 22.287-28.16v-370.748h49.242c9.035 0.994 17.98-2.379 24.184-9.035 5.451-6.927 8.132-15.661 7.469-24.456v-84.932c0-13.975-2.711-18.884-8.704-24.516-5.75-4.707-13.176-7.559-21.269-7.559-0.867 0-1.726 0.033-2.577 0.097l0.113-0.007h-49.032zM4308.57 277.594h-146.673c-0.482-0.022-1.047-0.035-1.614-0.035-7.305 0-14.118 2.111-19.86 5.757l0.151-0.090c-5.961 4.4-10.376 10.591-12.469 17.772l-0.060 0.239-93.726 287.714c-8.011-21.835-16.384-45.116-25.058-69.813l-25.148-74.12-25.118-74.089c-8.192-24.546-16.023-47.797-23.582-69.752-1.588-7.046-5.446-13.012-10.751-17.24l-0.061-0.047c-5.993-4.337-13.252-6.566-20.6-6.325h-149.384c-16.745 0-25.118 6.626-25.118 19.787 0 4.397 0.813 8.794 2.259 12.951l209.679 512.783-56.772 167.424c-1.506 4.427-2.409 9.035-2.711 13.673-0.115 0.699-0.181 1.505-0.181 2.326 0 6.288 3.87 11.672 9.357 13.902l0.1 0.036c5.632 2.409 11.686 3.614 17.769 3.554h135.62c0.079 0.001 0.173 0.001 0.266 0.001 7.27 0 13.934-2.594 19.118-6.907l-0.049 0.039c5.512-4.337 9.427-10.391 11.144-17.227 8.704-26.263 19.336-56.471 31.864-90.594 12.559-34.093 26.293-70.626 41.201-109.598 14.848-39.063 30.419-79.752 46.682-122.037s32.527-84.57 48.7-126.825l47.736-126.886 43.64-116.375c1.126-2.685 1.78-5.805 1.78-9.078 0-3.891-0.925-7.566-2.566-10.817l0.063 0.138c-6.957-11.384-25.63-10.24-25.63-10.24zM4471.657 691.802c-6.813-7.088-15.008-12.791-24.158-16.685l-0.479-0.181c-8.978-3.998-19.453-6.326-30.472-6.326-0.14 0-0.28 0-0.42 0.001l0.022-0c-10.24 0-20.329 2.138-29.696 6.325-9.442 4.29-17.504 9.961-24.328 16.859l-0.007 0.007c-6.904 6.889-12.536 15.050-16.517 24.101l-0.198 0.506c-3.966 8.666-6.278 18.798-6.278 29.47s2.312 20.804 6.462 29.923l-0.185-0.453c4.006 9.096 9.698 17.318 16.715 24.305 7.017 7.108 15.27 12.83 24.335 16.896 9.336 4.156 19.486 6.325 29.696 6.325 10.601 0.060 21.112-2.108 30.871-6.325 9.186-4.006 17.559-9.728 24.636-16.866 13.77-13.713 22.291-32.688 22.291-53.653 0-0.26-0.001-0.52-0.004-0.779l0 0.040c0-0.098 0.001-0.214 0.001-0.33 0-10.813-2.192-21.114-6.157-30.482l0.193 0.514c-4.336-8.942-9.799-16.6-16.331-23.198l0.007 0.007zM4706.997 276.058h-45.176c-0.439-0.028-0.953-0.044-1.47-0.044-6.527 0-12.463 2.526-16.886 6.653l0.014-0.013c-3.921 4.608-6.307 10.628-6.307 17.206 0 0.283 0.004 0.565 0.013 0.845l-0.001-0.041v489.773c-0.121 0.859-0.19 1.851-0.19 2.859 0 4.923 1.645 9.461 4.415 13.096l-0.039-0.053c3.433 4.518 8.493 7.529 14.095 8.252 2.289 0.301 52.043 0 52.043 0 0.493 0.034 1.069 0.054 1.649 0.054 6.307 0 12.071-2.325 16.483-6.164l-0.030 0.026c4.082-4.207 6.599-9.954 6.599-16.288 0-0.606-0.023-1.207-0.068-1.801l0.005 0.079v-491.339c-0.054-6.363-2.48-12.148-6.434-16.526l0.019 0.022c-4.189-4.154-9.958-6.721-16.327-6.721-0.848 0-1.685 0.045-2.509 0.134l0.102-0.009zM4732.145 76.89c-12.575-12.579-29.949-20.36-49.14-20.36-0.047 0-0.093 0-0.14 0l0.007-0c-9.065 0-18.071 1.897-26.353 5.632-16.374 7.272-29.174 20.121-36.205 36.083l-0.177 0.45c-3.521 7.858-5.572 17.032-5.572 26.684 0 0.074 0 0.148 0 0.222l-0-0.011c0.12 8.734 2.018 17.408 5.572 25.389 7.138 16.264 20.028 29.184 36.141 36.262 7.909 3.532 17.139 5.59 26.85 5.59s18.941-2.057 27.279-5.76l-0.429 0.17c24.548-10.455 41.446-34.377 41.446-62.245 0-0.247-0.001-0.493-0.004-0.739l0 0.038c0.060-9.216-1.747-18.342-5.24-26.835-3.017-8.441-7.377-15.711-12.891-21.935l0.061 0.070-1.205 1.295zM5377.355 435.652c-43.089-101.137-141.65-170.748-256.469-170.748-39.062 0-76.242 8.057-109.97 22.599l1.804-0.692c-34.182 14.931-63.375 35.045-88.035 59.694l0.001-0.001c-50.219 50.544-81.258 120.197-81.258 197.099 0 0.081 0 0.163 0 0.244l-0-0.013c0 74.089 29.244 145.107 81.257 197.331 25.299 25.299 55.176 45.478 88.004 59.452 69.271 28.913 147.095 28.913 216.395 0 68.226-29.031 121.271-82.672 148.834-149.506l0.67-1.835c12.955-31.105 20.479-67.239 20.479-105.131 0-39.251-8.074-76.616-22.651-110.526l0.697 1.821 0.241 0.211zM5296.851 618.014c-10.339 23.576-24.272 43.703-41.342 60.678l-0.009 0.009c-17.244 16.629-37.558 30.214-59.989 39.803l-1.3 0.494c-21.307 9.527-46.176 15.076-72.341 15.076-0.88 0-1.758-0.006-2.634-0.019l0.133 0.001c-0.432 0.004-0.943 0.006-1.454 0.006-25.976 0-50.657-5.546-72.924-15.518l1.132 0.453c-23.429-10.41-43.436-24.321-60.348-41.314l-0.007-0.007c-16.914-16.998-30.701-37.126-40.414-59.436l-0.485-1.251c-9.38-21.793-14.835-47.161-14.835-73.803s5.455-52.011 15.308-75.049l-0.474 1.246c19.851-46.045 55.524-82.128 100.019-102.026l1.237-0.494c21.844-9.537 47.296-15.085 74.044-15.085s52.2 5.549 75.268 15.558l-1.224-0.473c45.816 20.462 81.61 56.509 101.243 101.256l0.495 1.265c9.808 22.154 15.518 47.993 15.518 75.165 0 26.523-5.44 51.776-15.266 74.702l0.471-1.236h0.181z" fill="rgb(7, 28, 55)"></path><path d="M2044.115 106.044c0 58.567-47.316 106.044-105.683 106.044s-105.683-47.478-105.683-106.044c0-58.567 47.316-106.044 105.683-106.044s105.683 47.478 105.683 106.044z" fill="rgb(255, 65, 90)"></path><path d="M3276.71 106.044c0 58.567-47.316 106.044-105.683 106.044s-105.683-47.478-105.683-106.044c0-58.567 47.316-106.044 105.683-106.044s105.683 47.478 105.683 106.044z" fill="rgb(255, 65, 90)"></path></svg>